<?xml version="1.0" standalone="no"?>
<!DOCTYPE svg PUBLIC "-//W3C//DTD SVG 1.1//EN" "http://www.w3.org/Graphics/SVG/1.1/DTD/svg11.dtd" >
<svg xmlns="http://www.w3.org/2000/svg">
<metadata>Generated by IcoMoon</metadata>
<defs>
<font id="icomoon" horiz-adv-x="1024">
<font-face units-per-em="1024" ascent="960" descent="-64" />
<missing-glyph horiz-adv-x="1024" />
<glyph unicode="&#x20;" horiz-adv-x="512" d="" />
<glyph unicode="&#xe925;" d="M1024 448c0-282.77-229.23-512-512-512s-512 229.23-512 512c0 282.77 229.23 512 512 512s512-229.23 512-512z" />
<glyph unicode="&#xe926;" d="M542.342 660.391l-179.043-184.205c-7.242-7.482-11.299-17.619-11.299-28.179 0-10.614 4.058-20.749 11.299-28.234l179.043-184.15c7.498-7.747 17.36-11.622 27.168-11.622 9.862 0 19.776 3.875 27.274 11.728 14.998 15.603 14.947 40.758-0.102 56.253l-151.616 156.026 151.616 155.971c15.050 15.498 15.101 40.705 0.102 56.307-14.998 15.656-39.341 15.549-54.442 0.106z" />
<glyph unicode="&#xe927;" d="M1024 448c0-282.77-229.23-512-512-512s-512 229.23-512 512c0 282.77 229.23 512 512 512s512-229.23 512-512z" />
<glyph unicode="&#xe928;" d="M481.658 660.391l179.043-184.205c7.242-7.482 11.299-17.619 11.299-28.179 0-10.614-4.058-20.749-11.299-28.234l-179.043-184.15c-7.498-7.747-17.36-11.622-27.168-11.622-9.862 0-19.776 3.875-27.274 11.728-14.998 15.603-14.947 40.758 0.102 56.253l151.616 156.026-151.616 155.971c-15.050 15.498-15.101 40.705-0.102 56.307 14.998 15.656 39.341 15.549 54.442 0.106z" />
<glyph unicode="&#xe929;" glyph-name="add" d="M469.333 789.333c0 23.564 19.102 42.667 42.667 42.667s42.667-19.103 42.667-42.667v-682.667c0-23.565-19.102-42.667-42.667-42.667s-42.667 19.102-42.667 42.667v682.667zM853.333 490.667c23.565 0 42.667-19.102 42.667-42.667s-19.102-42.667-42.667-42.667h-682.667c-23.564 0-42.667 19.102-42.667 42.667s19.103 42.667 42.667 42.667h682.667z" />
<glyph unicode="&#xe92a;" glyph-name="archive" d="M810.667 490.667v-341.333h-597.333v341.333h597.333zM128 576v-469.333c0-23.565 19.103-42.667 42.667-42.667h682.667c23.565 0 42.667 19.102 42.667 42.667v469.333h-768zM128 704h768v-128h-768v128zM85.333 789.333c-23.564 0-42.667-19.103-42.667-42.667v-213.333c0-23.565 19.103-42.667 42.667-42.667h853.333c23.565 0 42.667 19.102 42.667 42.667v213.333c0 23.564-19.102 42.667-42.667 42.667h-853.333zM426.667 362.667c0 23.565 19.102 42.667 42.667 42.667h85.333c23.565 0 42.667-19.102 42.667-42.667s-19.102-42.667-42.667-42.667h-85.333c-23.565 0-42.667 19.102-42.667 42.667z" />
<glyph unicode="&#xe92b;" glyph-name="arrow-down" d="M309.224 561.429c15.517 17.734 42.472 19.531 60.206 4.014l142.57-124.747 142.571 124.747c17.732 15.517 44.689 13.72 60.207-4.014s13.722-44.689-4.015-60.207l-170.667-149.333c-16.085-14.076-40.107-14.076-56.192 0l-170.666 149.333c-17.734 15.518-19.531 42.473-4.014 60.207z" />
<glyph unicode="&#xe92c;" glyph-name="camera" d="M512.004 240.764c85.487 0 154.795 70.946 154.795 158.473 0 87.522-69.308 158.483-154.795 158.483-85.489 0-154.789-70.961-154.789-158.483 0-87.526 69.3-158.473 154.789-158.473zM809.677 728.375h83.354c34.722-0.027 68.023-14.16 92.587-39.306 24.55-25.135 38.366-59.229 38.383-94.792v-438.855c-0.017-35.55-13.833-69.645-38.383-94.793-24.559-25.135-57.86-39.275-92.587-39.296h-762.051c-34.723 0.017-68.025 14.161-92.587 39.296-24.551 25.143-38.364 59.238-38.392 94.793v438.855c0.027 35.56 13.84 69.655 38.392 94.792 24.559 25.145 57.861 39.278 92.587 39.306h83.347c18.723 0.048 36.355 9.074 47.632 24.384l50.009 68.266c24.806 33.679 63.586 53.526 104.778 53.642h190.512c41.203-0.116 79.974-19.962 104.789-53.642l50.010-68.266c11.273-15.31 28.898-24.335 47.62-24.384zM352.028 235.435c42.428-43.439 99.979-67.844 159.972-67.844 59.985 0.077 117.478 24.512 159.889 67.93 42.419 43.418 66.27 102.293 66.347 163.695 0 61.431-23.834 120.346-66.261 163.782-42.428 43.439-99.972 67.841-159.974 67.841-59.994 0-117.544-24.403-159.972-67.841-42.418-43.436-66.253-102.351-66.253-163.782s23.835-120.346 66.253-163.78z" />
<glyph unicode="&#xe92d;" glyph-name="clear" d="M644.378 580.796c16.661-16.663 16.661-43.677 0-60.34l-204.459-204.459c-16.663-16.661-43.677-16.661-60.34 0s-16.662 43.678 0 60.339l204.46 204.459c16.661 16.662 43.678 16.662 60.339 0zM379.475 580.889c16.664 16.66 43.679 16.658 60.341-0.006l204.629-204.673c16.661-16.661 16.657-43.678-0.009-60.339-16.661-16.661-43.678-16.657-60.339 0.009l-204.629 204.672c-16.661 16.663-16.658 43.678 0.006 60.338zM142.661 809.982c45.21 48.503 109.383 75.351 184.4 75.351h369.878c75.179 0 139.383-26.829 184.58-75.367 44.877-48.194 67.836-114.328 67.836-187.716v-348.501c0-73.387-22.959-139.524-67.844-187.716-45.201-48.542-109.419-75.366-184.614-75.366h-369.835c-75.182 0-139.378 26.829-184.564 75.371-44.864 48.196-67.81 114.33-67.81 187.712v348.501c0 73.435 23.073 139.561 67.973 187.732zM205.082 751.799c-27.73-29.75-45.062-73.832-45.062-129.548v-348.501c0-55.77 17.268-99.844 44.937-129.57 27.348-29.376 68.005-48.179 122.103-48.179h369.835c54.123 0 94.805 18.807 122.167 48.188 27.682 29.726 44.958 73.796 44.958 129.562v348.501c0 55.764-17.276 99.838-44.954 129.564-27.358 29.382-68.032 48.185-122.129 48.185h-369.878c-53.879 0-94.559-18.784-121.978-48.201z" />
<glyph unicode="&#xe92e;" glyph-name="close1" d="M843.665 779.694c12.855-12.853 12.855-33.693 0.004-46.548l-616.787-616.837c-12.853-12.855-33.693-12.855-46.548-0.004-12.854 12.855-12.855 33.694-0.002 46.549l616.787 616.838c12.851 12.855 33.694 12.855 46.545 0.002zM843.695 116.335c-12.855-12.855-33.694-12.855-46.549-0.004l-616.838 616.788c-12.855 12.853-12.855 33.693-0.002 46.548s33.693 12.855 46.548 0.002l616.837-616.783c12.855-12.855 12.855-33.694 0.004-46.549z" />
<glyph unicode="&#xe92f;" glyph-name="display" d="M109.716 132.621h804.567c29.107 0 57.011 11.733 77.585 32.602 20.578 20.881 32.132 49.19 32.132 78.707v519.428c0 29.527-11.554 57.839-32.132 78.708-20.574 20.879-48.482 32.601-77.585 32.601h-804.567c-29.095 0-57.001-11.723-77.581-32.601-20.57-20.871-32.134-49.182-32.134-78.708v-519.428c0-29.517 11.564-57.83 32.134-78.707 20.581-20.868 48.488-32.602 77.581-32.602zM83.855 789.594c6.864 6.963 16.16 10.871 25.861 10.871h804.567c9.702 0 19.008-3.907 25.865-10.871 6.861-6.953 10.714-16.393 10.714-26.236v-519.428c0-9.83-3.853-19.273-10.714-26.236-6.857-6.955-16.162-10.859-25.865-10.859h-804.567c-9.702 0-18.999 3.904-25.861 10.859-6.853 6.963-10.705 16.405-10.705 26.236v519.428c0 9.843 3.852 19.283 10.705 26.236zM329.152 21.333h365.726c13.056 0 25.135 7.070 31.667 18.547 6.528 11.477 6.528 25.621 0 37.094-6.532 11.49-18.607 18.56-31.667 18.56h-365.726c-13.059 0-25.135-7.070-31.67-18.56-6.534-11.473-6.533-25.617 0-37.094s18.611-18.547 31.67-18.547z" />
<glyph unicode="&#xe930;" glyph-name="edit" d="M154.32 796.564c45.861 49.203 110.973 76.455 187.142 76.455h159.531c23.565 0 42.667-19.103 42.667-42.667s-19.102-42.667-42.667-42.667h-159.531c-55.032 0-96.65-19.191-124.72-49.305-28.379-30.447-46.075-75.52-46.075-132.413v-354.731c0-56.943 17.631-102.012 45.95-132.433 27.998-30.076 69.594-49.284 124.845-49.284h376.491c55.275 0 96.883 19.209 124.885 49.289 28.322 30.421 45.952 75.486 45.952 132.429v171.861c0 23.565 19.102 42.667 42.667 42.667s42.667-19.102 42.667-42.667v-171.861c0-74.556-23.309-141.683-68.83-190.579-45.845-49.237-110.989-76.471-187.341-76.471h-376.491c-76.333 0-141.468 27.234-187.305 76.476-45.516 48.896-68.823 116.019-68.823 190.575v354.731c0 74.607 23.435 141.725 68.986 190.595zM819.831 772.054c-23.066 23.040-60.459 23.040-83.524 0l-318.831-318.831c-9.062-9.062-14.284-21.252-14.61-34.039l-2.923-117.551h116.088c13.248 0 25.95 5.265 35.324 14.639l320.384 320.384c23.031 23.005 23.070 60.42 0 83.489l-51.908 51.909zM676.002 832.426c56.38 56.32 147.755 56.32 204.134 0l51.942-51.942c56.375-56.376 56.401-147.831-0.017-204.186l-320.367-320.367c-25.357-25.357-59.759-39.633-95.663-39.633h-159.829c-11.5 0-22.513 4.642-30.543 12.873-8.030 8.235-12.397 19.358-12.111 30.857l4.011 161.28c0.873 34.654 15.021 67.699 39.577 92.254l318.865 318.865zM627.533 783.147c16.661 16.662 43.678 16.662 60.339 0l194.816-194.816c16.661-16.663 16.661-43.677 0-60.34s-43.678-16.661-60.339 0l-194.816 194.816c-16.661 16.663-16.661 43.677 0 60.34z" />
<glyph unicode="&#xe931;" glyph-name="events" d="M89.286 558.752c0 23.564 19.103 42.667 42.667 42.667h760.489c23.565 0 42.667-19.102 42.667-42.667s-19.102-42.668-42.667-42.668h-760.489c-23.564 0-42.667 19.104-42.667 42.668zM684.531 917.333c23.565 0 42.667-19.103 42.667-42.667v-140.407c0-23.564-19.102-42.667-42.667-42.667s-42.667 19.103-42.667 42.667v140.407c0 23.564 19.102 42.667 42.667 42.667zM339.862 917.333c23.564 0 42.667-19.103 42.667-42.667v-140.407c0-23.564-19.103-42.667-42.667-42.667s-42.667 19.103-42.667 42.667v140.407c0 23.564 19.102 42.667 42.667 42.667zM153.397 787.274c45.24 43.005 107.829 62.68 178.164 62.68h361.273c70.494 0 133.129-19.655 178.304-62.722 45.5-43.373 67.742-105.196 67.529-178.124v-389.268c0-72.922-22.353-134.788-67.849-178.227-45.193-43.149-107.814-62.946-178.381-62.946h-360.876c-70.591 0-133.271 20.228-178.462 64.026-45.403 44.006-67.766 106.581-67.766 180.373v386.12c0 72.985 22.493 134.769 68.064 178.089zM212.19 725.426c-24.886-23.657-41.523-60.923-41.523-116.241v-386.12c0-56.525 16.768-94.814 41.821-119.1 25.265-24.486 64.366-39.966 119.073-39.966h360.876c55.13 0 94.289 15.305 119.45 39.33 24.866 23.74 41.446 61.124 41.446 116.51v389.477c0.171 55.351-16.324 92.559-41.075 116.151-25.079 23.909-64.226 39.153-119.424 39.153h-361.273c-54.963 0-94.156-15.225-119.371-39.195z" />
<glyph unicode="&#xe932;" glyph-name="info" d="M696.832 21.333h-369.835c-144.555 0-241.664 101.461-241.664 252.416v348.501c0 150.955 97.109 252.416 241.664 252.416h369.92c144.597 0 241.749-101.461 241.749-252.416v-348.501c0-150.955-97.152-252.416-241.835-252.416zM469.073 609.958c0-23.595 19.285-42.667 42.88-42.667s42.667 19.072 42.667 42.667c0 23.595-19.072 42.667-42.667 42.667h-0.427c-23.552 0-42.453-19.072-42.453-42.667zM479.744 277.333c0-17.664 14.336-32 32-32s32 14.336 32 32v170.667c0 17.664-14.336 32-32 32s-32-14.336-32-32v-170.667z" />
<glyph unicode="&#xe933;" glyph-name="maximize" d="M567.164 503.164c-16.661 16.661-16.661 43.677 0 60.339l225.83 225.836h-152.994c-23.565 0-42.667 19.103-42.667 42.667s19.102 42.667 42.667 42.667h256c23.565 0 42.667-19.102 42.667-42.667v-256c0-23.564-19.102-42.667-42.667-42.667s-42.667 19.103-42.667 42.667v152.992l-225.83-225.834c-16.661-16.661-43.678-16.661-60.339 0zM426.665 64c0-23.565-19.103-42.667-42.667-42.667h-256c-23.564 0-42.667 19.102-42.667 42.667v256c0 23.565 19.103 42.667 42.667 42.667s42.667-19.102 42.667-42.667v-152.994l225.831 225.83c16.663 16.661 43.678 16.661 60.34 0s16.661-43.678 0-60.339l-225.831-225.83h152.993c23.564 0 42.667-19.102 42.667-42.667z" />
<glyph unicode="&#xe934;" glyph-name="menu" d="M85.333 704c0 23.564 19.103 42.667 42.667 42.667h768c23.565 0 42.667-19.103 42.667-42.667s-19.102-42.667-42.667-42.667h-768c-23.564 0-42.667 19.103-42.667 42.667zM85.333 448c0 23.565 19.103 42.667 42.667 42.667h768c23.565 0 42.667-19.102 42.667-42.667s-19.102-42.667-42.667-42.667h-768c-23.564 0-42.667 19.102-42.667 42.667zM85.333 192c0 23.565 19.103 42.667 42.667 42.667h768c23.565 0 42.667-19.102 42.667-42.667s-19.102-42.667-42.667-42.667h-768c-23.564 0-42.667 19.102-42.667 42.667z" />
<glyph unicode="&#xe935;" glyph-name="minimize" d="M926.17 862.17c16.661-16.662 16.661-43.677 0-60.34l-225.83-225.836h152.994c23.565 0 42.667-19.103 42.667-42.666 0-23.565-19.102-42.667-42.667-42.667h-256c-23.565 0-42.667 19.102-42.667 42.667v255.999c0 23.564 19.102 42.667 42.667 42.667s42.667-19.103 42.667-42.667v-152.992l225.83 225.834c16.661 16.663 43.678 16.663 60.339 0zM128.001 362.667c0 23.565 19.103 42.667 42.667 42.667h255.999c23.565 0 42.667-19.102 42.667-42.667v-256c0-23.565-19.102-42.667-42.667-42.667-23.563 0-42.665 19.102-42.665 42.667v152.994l-225.831-225.83c-16.663-16.661-43.677-16.661-60.34 0s-16.662 43.678 0 60.339l225.831 225.83h-152.993c-23.564 0-42.667 19.102-42.667 42.667z" />
<glyph unicode="&#xe936;" glyph-name="move-down" d="M142.502 809.966c45.195 48.538 109.399 75.367 184.58 75.367h369.877c75.183 0 139.379-26.83 184.563-75.372 44.864-48.196 67.81-114.329 67.81-187.711v-348.501c0-73.442-23.087-139.567-67.989-187.733-45.214-48.499-109.385-75.349-184.384-75.349h-369.877c-75.181 0-139.385 26.829-184.58 75.366-44.876 48.196-67.836 114.33-67.836 187.716v348.501c0 73.388 22.96 139.522 67.836 187.715zM204.954 751.815c-27.679-29.726-44.954-73.8-44.954-129.564v-348.501c0-55.765 17.275-99.84 44.954-129.566 27.36-29.38 68.030-48.183 122.129-48.183h369.877c53.854 0 94.537 18.782 121.963 48.205 27.738 29.751 45.077 73.835 45.077 129.545v348.501c0 55.77-17.267 99.845-44.937 129.569-27.349 29.379-68.006 48.18-122.103 48.18h-369.877c-54.099 0-94.769-18.803-122.129-48.185zM512 665.003c23.565 0 42.667-19.102 42.667-42.667v-348.672c0-23.565-19.102-42.667-42.667-42.667s-42.667 19.102-42.667 42.667v348.672c0 23.564 19.102 42.667 42.667 42.667zM321.98 464.482c16.698 16.627 43.713 16.572 60.34-0.128l129.681-130.236 129.681 130.236c16.627 16.7 43.639 16.755 60.339 0.128s16.755-43.639 0.128-60.339l-159.915-160.597c-8.004-8.043-18.884-12.548-30.234-12.548s-22.229 4.506-30.234 12.548l-159.915 160.597c-16.627 16.7-16.569 43.712 0.128 60.339z" />
<glyph unicode="&#xe937;" glyph-name="move-left" d="M873.967 817.498c48.538-45.195 75.366-109.399 75.366-184.58v-369.877c0-75.183-26.829-139.379-75.371-184.563-48.196-44.864-114.33-67.81-187.712-67.81h-348.501c-73.441 0-139.567 23.087-187.734 67.989-48.499 45.214-75.349 109.385-75.349 184.384v369.877c0 75.181 26.829 139.385 75.367 184.58 48.194 44.876 114.328 67.836 187.716 67.836h348.501c73.387 0 139.52-22.96 187.716-67.836zM815.817 755.046c-29.726 27.679-73.801 44.954-129.566 44.954h-348.501c-55.764 0-99.838-17.275-129.564-44.954-29.382-27.36-48.185-68.030-48.185-122.129v-369.877c0-53.854 18.782-94.537 48.203-121.963 29.753-27.738 73.836-45.077 129.546-45.077h348.501c55.77 0 99.844 17.267 129.57 44.937 29.376 27.349 48.179 68.006 48.179 122.103v369.877c0 54.099-18.803 94.769-48.183 122.129zM729.003 448c0-23.565-19.102-42.667-42.667-42.667h-348.672c-23.564 0-42.667 19.102-42.667 42.667s19.103 42.667 42.667 42.667h348.672c23.565 0 42.667-19.102 42.667-42.667zM528.482 638.020c16.627-16.698 16.572-43.713-0.128-60.34l-130.234-129.681 130.234-129.681c16.7-16.627 16.755-43.639 0.128-60.339s-43.639-16.755-60.339-0.128l-160.597 159.915c-8.041 8.004-12.548 18.884-12.548 30.234s4.507 22.229 12.548 30.234l160.597 159.915c16.7 16.627 43.712 16.569 60.339-0.128z" />
<glyph unicode="&#xe938;" glyph-name="move-right" d="M150.033 78.502c-48.538 45.197-75.367 109.397-75.367 184.58v369.877c0 75.182 26.83 139.378 75.372 184.563 48.196 44.864 114.329 67.81 187.711 67.81h348.501c73.442 0 139.567-23.088 187.733-67.991 48.499-45.213 75.349-109.382 75.349-184.382v-369.877c0-75.183-26.829-139.383-75.366-184.58-48.196-44.877-114.33-67.836-187.716-67.836h-348.501c-73.388 0-139.522 22.959-187.716 67.836zM208.185 140.954c29.726-27.678 73.8-44.954 129.564-44.954h348.501c55.765 0 99.84 17.276 129.566 44.954 29.38 27.358 48.183 68.032 48.183 122.129v369.877c0 53.854-18.782 94.537-48.205 121.964-29.751 27.737-73.835 45.076-129.545 45.076h-348.501c-55.77 0-99.845-17.268-129.569-44.937-29.379-27.348-48.18-68.005-48.18-122.103v-369.877c0-54.097 18.803-94.771 48.185-122.129zM294.997 448c0 23.565 19.103 42.667 42.667 42.667h348.672c23.565 0 42.667-19.102 42.667-42.667s-19.102-42.667-42.667-42.667h-348.672c-23.564 0-42.667 19.102-42.667 42.667zM495.518 257.98c-16.627 16.7-16.572 43.712 0.128 60.339l130.236 129.681-130.236 129.681c-16.7 16.627-16.755 43.642-0.128 60.34s43.639 16.755 60.339 0.128l160.597-159.915c8.043-8.004 12.548-18.884 12.548-30.234s-4.506-22.229-12.548-30.234l-160.597-159.915c-16.7-16.627-43.712-16.572-60.339 0.128z" />
<glyph unicode="&#xe939;" glyph-name="move-up" d="M881.498 86.033c-45.197-48.538-109.397-75.366-184.58-75.366h-369.877c-75.182 0-139.378 26.829-184.563 75.371-44.864 48.196-67.81 114.33-67.81 187.712v348.501c0 73.441 23.088 139.567 67.991 187.734 45.213 48.499 109.382 75.349 184.382 75.349h369.877c75.183 0 139.383-26.829 184.58-75.367 44.877-48.194 67.836-114.328 67.836-187.716v-348.501c0-73.387-22.959-139.52-67.836-187.716zM819.046 144.183c27.678 29.726 44.954 73.801 44.954 129.566v348.501c0 55.764-17.276 99.838-44.954 129.564-27.358 29.382-68.032 48.185-122.129 48.185h-369.877c-53.854 0-94.537-18.782-121.964-48.204-27.737-29.752-45.076-73.835-45.076-129.546v-348.501c0-55.77 17.268-99.844 44.937-129.57 27.348-29.376 68.005-48.179 122.103-48.179h369.877c54.097 0 94.771 18.803 122.129 48.183zM512 230.997c-23.565 0-42.667 19.102-42.667 42.667v348.672c0 23.564 19.102 42.667 42.667 42.667s42.667-19.102 42.667-42.667v-348.672c0-23.565-19.102-42.667-42.667-42.667zM702.020 431.518c-16.7-16.627-43.712-16.572-60.339 0.128l-129.681 130.234-129.681-130.234c-16.627-16.7-43.642-16.755-60.34-0.128s-16.755 43.639-0.128 60.339l159.915 160.597c8.004 8.041 18.884 12.548 30.234 12.548s22.229-4.507 30.234-12.548l159.915-160.597c16.627-16.7 16.572-43.712-0.128-60.339z" />
<glyph unicode="&#xe93a;" glyph-name="nodes" d="M144.468 908.342c10.391 8.084 23.931 10.918 36.692 7.68l714.665-181.333c18.923-4.802 32.175-21.834 32.175-41.356v-469.333c0-19.081-12.668-35.844-31.027-41.050l-714.666-202.667c-12.866-3.648-26.699-1.054-37.367 7.010s-16.94 20.663-16.94 34.039v853.333c0 13.165 6.077 25.593 16.468 33.676zM213.333 819.822v-328.515l320 4.779v242.543l-320 81.194zM618.667 716.976v-224.812l224 7.723v160.253l-224 56.836zM842.667 414.502l-224-7.723v-214.054l224 63.522v158.255zM533.333 168.529v242.21l-320-4.774v-328.183l320 90.748z" />
<glyph unicode="&#xe93b;" glyph-name="redo" d="M735.023 540.587c-38.144 113.636-144.555 195.41-269.841 195.41-157.341 0-284.882-128.944-284.882-287.989 0-159.066 127.553-288.013 284.882-288.013 74.539 0 144.439 29.001 197.167 80.115 18.918 18.347 48.977 17.719 67.127-1.417s17.523-49.515-1.399-67.861c-70.234-68.092-163.61-106.833-262.886-106.833-209.79 0-379.857 171.93-379.857 384 0 212.068 170.067 384 379.857 384 158.805 0 294.865-98.518 351.607-238.398l32.457 67.323c12.301 23.404 41.054 32.287 64.209 19.84 23.159-12.439 31.949-41.504 19.635-64.91l-91.251-189.274c-0.452-1.045-0.951-2.069-1.485-3.089-6.157-11.703-16.422-19.78-28.049-23.373-11.618-3.593-24.589-2.701-36.169 3.524-1.54 0.828-3.008 1.719-4.416 2.688l-175.002 106.594c-23.155 12.437-31.949 41.505-19.639 64.911 12.314 23.413 41.067 32.297 64.222 19.85l93.713-57.1z" />
<glyph unicode="&#xe93c;" glyph-name="reset" d="M85.333 490.667c0 146.497 121.003 384 426.667 384 166.541 0 273.173-89.39 341.329-163.547v35.547c0 23.564 19.106 42.667 42.667 42.667 23.565 0 42.667-19.103 42.667-42.667v-149.333c0-23.564-19.102-42.667-42.667-42.667h-149.333c-23.561 0-42.667 19.103-42.667 42.667s19.106 42.667 42.667 42.667h54.601c-62.549 71.152-144.768 149.333-289.263 149.333-249.003 0-341.333-189.164-341.333-298.667 0-23.565-19.103-42.667-42.667-42.667s-42.667 19.102-42.667 42.667zM938.667 405.333c0-146.496-121.003-384-426.667-384-166.541 0-273.175 89.391-341.331 163.546v-35.546c0-23.565-19.102-42.667-42.667-42.667s-42.667 19.102-42.667 42.667v149.333c0 23.565 19.103 42.667 42.667 42.667h149.333c23.564 0 42.667-19.102 42.667-42.667s-19.102-42.667-42.667-42.667h-54.598c62.549-71.151 144.769-149.333 289.263-149.333 249.003 0 341.333 189.163 341.333 298.667 0 23.565 19.102 42.667 42.667 42.667s42.667-19.102 42.667-42.667z" />
<glyph unicode="&#xe93d;" glyph-name="rotate-x-left" d="M662.848 304.465l-150.848-150.848-150.849 150.848 150.849 150.852 150.848-150.852zM572.339 515.657c-33.323 33.324-87.356 33.324-120.678 0l-150.85-150.852c-33.325-33.323-33.325-87.351 0-120.678l150.85-150.848c33.323-33.327 87.356-33.327 120.678 0l150.848 150.848c33.327 33.327 33.327 87.356 0 120.678l-150.848 150.852zM192 874.646c23.564 0 42.667-19.102 42.667-42.667v-94.393c21.935 23.701 46.298 46.332 74.242 65.218 67.52 45.634 153.3 68.517 273.581 50.012 121.745-18.73 196.143-72.625 242.074-136.796 42.010-58.695 58.061-123.506 68.429-165.361 0.593-2.405 1.173-4.734 1.732-6.982 5.717-22.862-8.183-46.026-31.044-51.739-22.861-5.717-46.025 8.183-51.738 31.044-0.393 1.557-0.781 3.123-1.178 4.702-10.718 42.986-23.334 93.601-55.595 138.67-31.936 44.62-85.538 86.718-185.66 102.121-101.585 15.628-165.139-4.147-212.819-36.372-28.538-19.287-52.304-43.406-75.607-70.784l81.587-0.008c23.564-0.002 42.665-19.107 42.662-42.671s-19.107-42.665-42.671-42.663l-170.667 0.017c-23.562 0.002-42.662 19.104-42.662 42.667v213.317c0 23.564 19.103 42.667 42.667 42.667z" />
<glyph unicode="&#xe93e;" glyph-name="rotate-x-right" d="M382.494 304.465l150.848-150.848 150.852 150.848-150.852 150.852-150.848-150.852zM473.003 515.657c33.327 33.324 87.356 33.324 120.683 0l150.848-150.852c33.323-33.323 33.323-87.351 0-120.678l-150.848-150.848c-33.327-33.327-87.356-33.327-120.683 0l-150.848 150.848c-33.325 33.327-33.325 87.356 0 120.678l150.848 150.852zM853.342 874.646c-23.561 0-42.667-19.102-42.667-42.667v-94.393c-21.935 23.701-46.298 46.332-74.24 65.218-67.52 45.634-153.297 68.517-273.579 50.012-121.747-18.73-196.145-72.625-242.075-136.796-42.010-58.695-58.063-123.506-68.429-165.361-0.596-2.405-1.173-4.734-1.735-6.982-5.715-22.862 8.184-46.026 31.045-51.739 22.86-5.717 46.026 8.183 51.741 31.044 0.389 1.557 0.78 3.123 1.174 4.702 10.717 42.986 23.337 93.601 55.596 138.67 31.936 44.62 85.539 86.718 185.659 102.121 101.585 15.628 165.141-4.147 212.821-36.372 28.535-19.287 52.305-43.406 75.605-70.784l-81.587-0.008c-23.561-0.002-42.662-19.107-42.662-42.671 0.004-23.564 19.11-42.665 42.671-42.663l170.667 0.017c23.565 0.002 42.662 19.104 42.662 42.667v213.317c0 23.564-19.102 42.667-42.667 42.667z" />
<glyph unicode="&#xe93f;" glyph-name="rotate-y-down" d="M689.668 611.662l150.848-150.849-150.848-150.848-150.848 150.848 150.848 150.849zM478.481 521.152c-33.327-33.323-33.327-87.356 0-120.678l150.848-150.852c33.323-33.323 87.356-33.323 120.678 0l150.852 150.852c33.323 33.323 33.323 87.356 0 120.678l-150.852 150.85c-33.323 33.325-87.356 33.325-120.678 0l-150.848-150.85zM119.49 140.813c0 23.565 19.102 42.667 42.667 42.667h94.393c-23.701 21.935-46.332 46.298-65.218 74.24-45.634 67.52-68.517 153.297-50.013 273.583 18.73 121.745 72.625 196.142 136.796 242.072 58.695 42.010 123.506 58.063 165.362 68.429 2.402 0.596 4.732 1.172 6.98 1.735 22.861 5.715 46.025-8.184 51.742-31.045 5.713-22.861-8.183-46.026-31.044-51.741-1.557-0.389-3.127-0.78-4.706-1.174-42.984-10.718-93.599-23.338-138.668-55.596-44.62-31.936-86.718-85.539-102.121-185.661-15.628-101.585 4.147-165.141 36.372-212.817 19.287-28.54 43.406-52.305 70.783-75.61l0.008 81.587c0.002 23.565 19.107 42.662 42.671 42.662 23.564-0.004 42.665-19.106 42.663-42.671l-0.017-170.667c-0.002-23.561-19.104-42.662-42.667-42.662h-213.317c-23.564 0-42.667 19.102-42.667 42.667z" />
<glyph unicode="&#xe940;" glyph-name="rotate-y-up" d="M689.668 331.298l150.848 150.848-150.848 150.849-150.848-150.849 150.848-150.848zM478.481 421.807c-33.327 33.323-33.327 87.356 0 120.679l150.848 150.849c33.323 33.325 87.356 33.325 120.678 0l150.852-150.849c33.323-33.323 33.323-87.356 0-120.679l-150.852-150.852c-33.323-33.323-87.356-33.323-120.678 0l-150.848 150.852zM119.49 802.146c0-23.564 19.102-42.667 42.667-42.667h94.393c-23.701-21.935-46.332-46.298-65.218-74.242-45.634-67.52-68.517-153.299-50.013-273.581 18.73-121.745 72.625-196.143 136.796-242.074 58.695-42.010 123.506-58.061 165.362-68.429 2.402-0.597 4.732-1.173 6.98-1.732 22.861-5.717 46.025 8.183 51.742 31.044 5.713 22.861-8.183 46.025-31.044 51.738-1.557 0.393-3.127 0.781-4.706 1.173-42.984 10.718-93.599 23.339-138.668 55.599-44.62 31.936-86.718 85.538-102.121 185.66-15.628 101.581 4.147 165.139 36.372 212.818 19.287 28.538 43.406 52.304 70.783 75.608l0.008-81.587c0.002-23.564 19.107-42.665 42.671-42.663s42.665 19.107 42.663 42.671l-0.017 170.667c-0.002 23.563-19.104 42.662-42.667 42.662h-213.317c-23.564 0-42.667-19.102-42.667-42.667z" />
<glyph unicode="&#xe941;" glyph-name="save" d="M853.329 625.194c0 33.922-13.487 66.472-37.466 90.495-32.512 32.51-88.956 88.958-121.425 121.476-24.021 24.020-56.58 37.502-90.543 37.502h-305.225c-70.703 0-128.003-57.3-128.003-128.003v-597.326c0-33.963 13.481-66.513 37.502-90.492 23.98-24.021 56.539-37.513 90.501-37.513h426.659c70.694 0 128 57.31 128 128.004v475.856zM767.996 625.194v-475.869c0-23.561-19.123-42.671-42.667-42.671h-426.659c-11.31 0-22.189 4.484-30.17 12.501-8.015 7.983-12.5 18.859-12.5 30.17v597.324c0 23.558 19.114 42.67 42.67 42.67h305.226c11.307 0 22.187-4.485 30.17-12.5l121.425-121.476c8.021-8.024 12.506-18.861 12.506-30.161v0.013zM384.002 191.987h255.99c23.548 0 42.662 19.119 42.662 42.667 0 23.552-19.115 42.671-42.662 42.671h-255.99c-23.558 0-42.67-19.123-42.67-42.671s19.114-42.667 42.67-42.667z" />
<glyph unicode="&#xe942;" glyph-name="search" d="M498.432 131.081c-182.518 0-330.479 147.964-330.479 330.483 0 182.521 147.961 330.482 330.479 330.482s330.479-147.962 330.479-330.482c0-182.519-147.959-330.483-330.479-330.483zM498.432 48.461c228.147 0 413.099 184.951 413.099 413.103s-184.951 413.103-413.099 413.103c-228.148 0-413.099-184.952-413.099-413.103s184.951-413.103 413.099-413.103zM734.191 167.386c-16.132 16.132-16.132 42.291 0 58.423 16.137 16.132 42.291 16.132 58.423 0l133.952-133.956c16.132-16.132 16.132-42.287 0-58.419s-42.287-16.132-58.419 0l-133.956 133.952z" />
<glyph unicode="&#xe943;" glyph-name="sort" d="M473.762 361.301c8.538-11.093 25.271-11.093 33.809 0l105.988 137.685c10.799 14.029 0.798 34.347-16.905 34.347h-211.977c-17.703 0-27.703-20.318-16.905-34.347l105.989-137.685z" />
<glyph unicode="&#xe944;" glyph-name="Straighten-1" d="M42.667 444.45c0 23.561 19.103 42.667 42.667 42.667h853.333c23.565 0 42.667-19.106 42.667-42.667 0-23.565-19.102-42.667-42.667-42.667h-853.333c-23.564 0-42.667 19.102-42.667 42.667zM103.869 356.105l-29.678-244.459 186.394-21.559 9.408 77.811-106.644 12.288 20.314 166.652-79.794 9.267zM807.040 274.957l-20.288-166.763-106.641 12.326-9.399-77.692 186.287-21.495 29.751 244.459-79.71 9.165zM360.772 157.376l-9.391-77.7 228.561-26.415 9.459 77.722-228.629 26.394zM166.931 874.667l-29.696-244.526 79.725-9.143 20.288 166.764 106.495-12.354 9.539 77.674-186.351 21.585zM763.405 805.792l-9.408-77.76 106.573-12.26-20.288-166.72 79.787-9.212 29.615 244.395-186.278 21.557zM444.036 842.688l-9.51-77.701 228.672-26.415 9.408 77.674-228.57 26.441z" />
<glyph unicode="&#xe945;" glyph-name="Straighten-2" d="M981.333 444.45c0 23.561-19.102 42.667-42.667 42.667h-853.333c-23.564 0-42.667-19.106-42.667-42.667 0-23.565 19.103-42.667 42.667-42.667h853.333c23.565 0 42.667 19.102 42.667 42.667zM920.132 356.105l29.675-244.459-186.394-21.559-9.408 77.811 106.645 12.288-20.314 166.652 79.795 9.267zM216.958 274.957l20.288-166.763 106.644 12.326 9.399-77.692-186.289-21.495-29.75 244.459 79.706 9.165zM663.228 157.376l9.391-77.7-228.561-26.415-9.459 77.722 228.629 26.394zM857.071 874.667l29.696-244.526-79.727-9.143-20.288 166.764-106.496-12.354-9.54 77.674 186.355 21.585zM260.595 805.792l9.408-77.76-106.573-12.26 20.288-166.72-79.785-9.212-29.617 244.395 186.28 21.557zM579.964 842.688l9.51-77.701-228.672-26.415-9.408 77.674 228.57 26.441z" />
<glyph unicode="&#xe946;" glyph-name="tilt-down" d="M266.908 106.078l74.425 683.849h341.333l74.445-683.849h-490.203zM170.667 64.243c0-20.996 21.333-43.648 42.667-42.884l597.333-0.004c21.333-0.759 42.667 20.617 42.667 42.889l-85.333 768.425c0 21.376-21.333 42.741-42.667 41.979h-426.667c-21.333 0.762-42.667-21.889-42.667-42.886l-85.333-767.518zM85.333 448c0 24.098 19.103 43.635 42.667 43.635h768c23.565 0 42.667-19.537 42.667-43.635s-19.102-43.631-42.667-43.631h-768c-23.564 0-42.667 19.537-42.667 43.631z" />
<glyph unicode="&#xe947;" glyph-name="tilt-up" d="M266.908 789.923l74.425-683.849h341.333l74.445 683.849h-490.203zM170.667 831.757c0 20.997 21.333 43.646 42.667 42.886l597.333 0.004c21.333 0.756 42.667-20.62 42.667-42.89l-85.333-768.427c0-21.376-21.333-42.739-42.667-41.975h-426.667c-21.333-0.764-42.667 21.888-42.667 42.884l-85.333 767.518zM85.333 448c0-24.098 19.103-43.635 42.667-43.635h768c23.565 0 42.667 19.537 42.667 43.635s-19.102 43.631-42.667 43.631h-768c-23.564 0-42.667-19.533-42.667-43.631z" />
<glyph unicode="&#xe948;" glyph-name="tilt-x-left" d="M768 680.606v-465.212l-512-98.005v661.222l512-98.005zM853.333 716.756c0 20.961-14.622 38.949-34.803 42.812l-597.334 114.339c-26.257 5.026-50.53-15.538-50.53-42.812v-766.191c0-27.273 24.272-47.838 50.53-42.812l597.334 114.338c20.181 3.866 34.803 21.854 34.803 42.812v537.513zM938.667 448c0-24.055-19.102-43.558-42.667-43.558h-768c-23.564 0-42.667 19.503-42.667 43.558s19.102 43.558 42.667 43.558h768c23.565 0 42.667-19.503 42.667-43.558z" />
<glyph unicode="&#xe949;" glyph-name="tilt-x-right" d="M256 680.606v-465.212l512-98.005v661.222l-512-98.005zM170.667 716.756c0 20.96 14.624 38.949 34.804 42.812l597.333 114.339c26.257 5.026 50.53-15.538 50.53-42.812v-766.191c0-27.273-24.273-47.838-50.53-42.812l-597.333 114.338c-20.18 3.866-34.804 21.854-34.804 42.812v537.513zM85.333 448c0-24.055 19.103-43.558 42.667-43.558h768c23.565 0 42.667 19.503 42.667 43.558s-19.102 43.558-42.667 43.558h-768c-23.564 0-42.667-19.503-42.667-43.558z" />
<glyph unicode="&#xe94a;" glyph-name="tilt-y-down" d="M279.394 704h465.212l98.005-512h-661.222l98.005 512zM243.244 789.333c-20.961 0-38.949-14.624-42.812-34.804l-114.339-597.333c-5.026-26.257 15.538-50.53 42.812-50.53h766.191c27.273 0 47.838 24.273 42.812 50.53l-114.338 597.333c-3.866 20.18-21.854 34.804-42.812 34.804h-537.513zM512 874.667c24.055 0 43.558-19.103 43.558-42.667v-768c0-23.565-19.503-42.667-43.558-42.667s-43.558 19.102-43.558 42.667v768c0 23.564 19.503 42.667 43.558 42.667z" />
<glyph unicode="&#xe94b;" glyph-name="tilt-y-up" d="M279.394 192h465.212l98.005 512h-661.222l98.005-512zM243.244 106.667c-20.961 0-38.949 14.622-42.812 34.803l-114.339 597.334c-5.026 26.258 15.538 50.53 42.812 50.53h766.191c27.273 0 47.838-24.272 42.812-50.53l-114.338-597.334c-3.866-20.181-21.854-34.803-42.812-34.803h-537.513zM512 21.333c24.055 0 43.558 19.102 43.558 42.667v768c0 23.564-19.503 42.667-43.558 42.667s-43.558-19.102-43.558-42.667v-768c0-23.565 19.503-42.667 43.558-42.667z" />
<glyph unicode="&#xe94c;" glyph-name="undo" d="M288.978 540.587c38.144 113.636 144.553 195.41 269.84 195.41 157.342 0 284.881-128.944 284.881-287.989 0-159.066-127.552-288.013-284.881-288.013-74.539 0-144.441 29.001-197.165 80.115-18.921 18.347-48.98 17.719-67.13-1.417s-17.521-49.515 1.4-67.861c70.235-68.092 163.61-106.833 262.887-106.833 209.792 0 379.857 171.93 379.857 384 0 212.068-170.065 384-379.857 384-158.805 0-294.866-98.518-351.607-238.398l-32.456 67.323c-12.304 23.404-41.056 32.287-64.209 19.84-23.16-12.439-31.948-41.504-19.636-64.91l91.251-189.274c0.451-1.045 0.949-2.069 1.485-3.089 6.157-11.703 16.421-19.78 28.048-23.373 11.618-3.593 24.59-2.701 36.169 3.524 1.542 0.828 3.008 1.719 4.418 2.688l175 106.594c23.155 12.437 31.949 41.505 19.639 64.911-12.314 23.413-41.067 32.297-64.221 19.85l-93.713-57.1z" />
<glyph unicode="&#xe94d;" glyph-name="update" d="M382.289 874.174h290.966c11.913 0 23.313-4.652 31.561-12.88l221.658-221.073c7.821-7.803 12.19-18.203 12.19-29.021v-384.969c0.589-110.208-90.355-200.951-205.402-204.851-0.516-0.021-1.033-0.030-1.549-0.030h-349.001c-1.266-0.021-2.388-0.017-3.189-0.013-1.219 0.009-1.491 0.013-2.125 0.013l-0.937 0.013c-115.912 2.377-207.968 94.178-205.754 205.184v449.475l0.012 1.007c2.76 109.93 96.782 197.523 211.57 197.145zM258.212 675.481v-449.356l-0.010-0.896c-1.449-64.836 52.194-118.532 119.823-120.077l0.954-0.004 1.815-0.013c0.153 0.004 0.21 0.004 0.199 0.004 0.2 0.004 0.4 0.009 0.6 0.013 0.205 0 0.41 0.004 0.615 0.004h348.671c67.452 2.65 120.666 55.991 120.277 120.73v368.454l-196.548 196.031h-272.568c-67.023 0.247-121.96-50.757-123.829-114.89zM661.807 874.667c24.166 0 43.755-18.76 43.755-41.902v-121.891c0-36.362 30.703-65.865 68.719-65.995h120.427c24.162 0 43.75-18.76 43.75-41.902s-19.588-41.901-43.75-41.901h-120.623c-86.217 0.233-156.032 67.176-156.032 149.798v121.891c0 23.142 19.593 41.902 43.755 41.902zM537.809 574.706c24.166 0 43.755-18.76 43.755-41.902v-253.129c0-23.138-19.588-41.899-43.755-41.899-24.162 0-43.75 18.761-43.75 41.899v253.129c0 23.142 19.588 41.902 43.75 41.902zM537.809 574.706c11.639 0 22.822-4.46 31.036-12.356l102.601-98.679c17.050-16.397 16.99-42.927-0.132-59.255s-44.826-16.273-61.875 0.124l-71.599 68.86-71.599-68.86c-17.050-16.397-44.752-16.452-61.875-0.124s-17.182 42.859-0.131 59.255l102.599 98.679c8.213 7.897 19.341 12.356 30.976 12.356z" />
<glyph unicode="&#xe94e;" glyph-name="users" d="M179.944 216.785c-7.388-8.107-11.277-17.225-11.277-30.17 0-12.843 3.871-21.833 11.245-29.837 8.367-9.084 22.725-18.295 45.189-26.159 45.349-15.881 110.975-22.020 186.985-22.020 76.355 0 141.933 6.357 187.126 22.413 22.383 7.949 36.685 17.229 45.030 26.372 7.377 8.090 11.26 17.182 11.26 30.106 0 12.821-3.866 21.824-11.26 29.854-8.38 9.105-22.75 18.334-45.218 26.223-45.35 15.923-110.972 22.11-186.938 22.11-76.362 0-141.936-6.387-187.117-22.473-22.372-7.962-36.675-17.259-45.024-26.419zM198.148 325.828c58.704 20.898 135.673 27.119 213.937 27.119 77.745 0 154.665-6.007 213.43-26.641 29.589-10.389 57.668-25.523 78.724-48.397 22.046-23.945 34.598-54.528 34.598-90.419 0-35.797-12.429-66.377-34.351-90.394-20.954-22.963-48.939-38.225-78.507-48.725-58.701-20.851-135.663-27.038-213.895-27.038-77.741 0-154.658 5.948-213.413 26.522-29.588 10.364-57.674 25.472-78.736 48.337-22.056 23.945-34.602 54.528-34.602 90.423 0 35.797 12.418 66.381 34.324 90.419 20.945 22.98 48.92 38.268 78.491 48.794zM412.085 787.401c-77.917 0-141.084-66.13-141.084-147.698s63.167-147.7 141.084-147.7h1.211c77.516 0.346 140.121 66.395 139.831 147.537v0.163c0 81.575-63.172 147.698-141.041 147.698zM187.667 639.702c0 129.79 100.501 234.964 224.418 234.964 123.855 0 224.331-105.135 224.378-234.879 0.418-129.37-99.422-234.565-222.931-235.052h-1.447c-123.917 0-224.418 105.178-224.418 234.966zM661.244 789.497c3.725 23.78 25.152 39.896 47.859 35.996 85.107-14.616 150.007-91.893 150.007-185.128v-0.079c-0.162-94.59-67.115-172.664-154.074-185.46-22.788-3.354-43.861 13.274-47.061 37.137-3.204 23.863 12.672 45.925 35.46 49.279 46.447 6.835 82.236 48.646 82.342 99.161-0.017 49.778-34.692 91.164-80.162 98.973-22.707 3.9-38.097 26.339-34.372 50.12zM746.035 336.448c3.392 23.834 24.593 40.277 47.351 36.727 34.573-5.389 69.022-15.049 95.829-33.472 28.902-19.857 49.451-50.675 49.451-92.369 0-27.469-9.033-51.618-25.378-70.963-15.573-18.432-36.126-30.605-57.075-38.942-21.513-8.555-45.577 2.769-53.747 25.297-8.175 22.528 2.641 47.727 24.154 56.286 13.38 5.321 20.625 10.884 24.26 15.185 2.859 3.388 4.454 6.967 4.454 13.137 0 7.177-2.014 12.663-11.836 19.409-11.908 8.183-32.333 15.433-62.387 20.122-22.763 3.55-38.464 25.749-35.076 49.583z" />
<glyph unicode="&#xe94f;" glyph-name="warning" d="M512.107 578.39c23.629 0 42.786-19.156 42.786-42.785v-128.355c0-23.629-19.157-42.786-42.786-42.786s-42.786 19.157-42.786 42.786v128.355c0 23.63 19.157 42.785 42.786 42.785zM469.001 270.967c0 23.629 19.157 42.786 42.786 42.786h0.427c23.629 0 42.786-19.157 42.786-42.786s-19.157-42.786-42.786-42.786h-0.427c-23.629 0-42.786 19.157-42.786 42.786zM548.689 725.657c-16.619 27.697-56.759 27.697-73.378 0l-298.111-496.852c-17.111-28.518 3.431-64.798 36.688-64.798h596.224c33.259 0 53.798 36.279 36.689 64.798l-298.112 496.852zM401.935 769.683c49.853 83.090 170.276 83.089 220.128 0l298.112-496.855c51.332-85.551-10.291-194.394-110.063-194.394h-596.224c-99.77 0-161.396 108.843-110.064 194.394l298.112 496.855z" />
<glyph unicode="&#xe950;" glyph-name="zoom-in1" d="M469.333 789.333c-164.949 0-298.667-133.718-298.667-298.667s133.718-298.667 298.667-298.667c164.949 0 298.667 133.717 298.667 298.667s-133.717 298.667-298.667 298.667zM85.333 490.667c0 212.077 171.923 384 384 384 212.079 0 384-171.923 384-384 0-212.079-171.921-384-384-384-212.077 0-384 171.921-384 384zM680.23 279.77c16.661 16.661 43.678 16.661 60.339 0l185.6-185.6c16.661-16.661 16.661-43.678 0-60.339s-43.678-16.661-60.339 0l-185.6 185.6c-16.661 16.661-16.661 43.678 0 60.339zM469.333 661.333c23.565 0 42.667-19.103 42.667-42.667v-256c0-23.565-19.102-42.667-42.667-42.667s-42.667 19.102-42.667 42.667v256c0 23.564 19.102 42.667 42.667 42.667zM298.667 490.667c0 23.565 19.103 42.667 42.667 42.667h256c23.565 0 42.667-19.102 42.667-42.667s-19.102-42.667-42.667-42.667h-256c-23.564 0-42.667 19.102-42.667 42.667z" />
<glyph unicode="&#xe951;" glyph-name="zoom-out1" d="M469.333 789.333c-164.949 0-298.667-133.718-298.667-298.667s133.718-298.667 298.667-298.667c164.949 0 298.667 133.717 298.667 298.667s-133.717 298.667-298.667 298.667zM85.333 490.667c0 212.077 171.923 384 384 384 212.079 0 384-171.923 384-384 0-212.079-171.921-384-384-384-212.077 0-384 171.921-384 384zM680.23 279.77c16.661 16.661 43.678 16.661 60.339 0l185.6-185.6c16.661-16.661 16.661-43.678 0-60.339s-43.678-16.661-60.339 0l-185.6 185.6c-16.661 16.661-16.661 43.678 0 60.339zM298.667 490.667c0 23.565 19.103 42.667 42.667 42.667h256c23.565 0 42.667-19.102 42.667-42.667s-19.102-42.667-42.667-42.667h-256c-23.564 0-42.667 19.102-42.667 42.667z" />
</font>
</defs>
</svg>
